<svg width="21" height="21" viewBox="0 0 21 21" fill="none" xmlns="http://www.w3.org/2000/svg">
<path d="M6.77348 15.5352L5.56644 14.3281C5.23441 13.9961 5.11723 13.5156 5.26566 13.0703C5.38285 12.7227 5.5391 12.2696 5.7266 11.75H1.59379C1.25785 11.75 0.94535 11.5703 0.777382 11.2774C0.609413 10.9844 0.613319 10.625 0.785194 10.336L2.83598 6.87893C3.34379 6.02346 4.26176 5.50002 5.25394 5.50002H8.46879C8.56254 5.34377 8.65629 5.19924 8.75004 5.05862C11.9493 0.339866 16.7149 0.183616 19.5586 0.707054C20.0118 0.789085 20.3633 1.14455 20.4493 1.59768C20.9727 4.44533 20.8125 9.20705 16.0977 12.4063C15.961 12.5 15.8125 12.5938 15.6563 12.6875V15.9024C15.6563 16.8946 15.1329 17.8164 14.2774 18.3203L10.8204 20.3711C10.5313 20.543 10.1719 20.5469 9.87894 20.3789C9.58598 20.211 9.40629 19.9024 9.40629 19.5625V15.375C8.85551 15.5664 8.37504 15.7227 8.01176 15.8399C7.57426 15.9805 7.09769 15.8594 6.76957 15.5352H6.77348ZM15.6563 7.06252C16.0707 7.06252 16.4681 6.8979 16.7611 6.60488C17.0542 6.31185 17.2188 5.91442 17.2188 5.50002C17.2188 5.08562 17.0542 4.68819 16.7611 4.39517C16.4681 4.10214 16.0707 3.93752 15.6563 3.93752C15.2419 3.93752 14.8445 4.10214 14.5514 4.39517C14.2584 4.68819 14.0938 5.08562 14.0938 5.50002C14.0938 5.91442 14.2584 6.31185 14.5514 6.60488C14.8445 6.8979 15.2419 7.06252 15.6563 7.06252Z" fill="#9333EA"/>
</svg>
