<svg width="20" height="21" viewBox="0 0 20 21" fill="none" xmlns="http://www.w3.org/2000/svg">
<g clip-path="url(#clip0_3_1798)">
<path d="M6.11723 15.5352L4.91019 14.3281C4.57816 13.9961 4.46098 13.5156 4.60941 13.0703C4.7266 12.7227 4.88285 12.2696 5.07035 11.75H0.937538C0.6016 11.75 0.2891 11.5703 0.121132 11.2774C-0.0468371 10.9844 -0.0429309 10.625 0.128944 10.336L2.17973 6.87893C2.68754 6.02346 3.60551 5.50002 4.59769 5.50002H7.81254C7.90629 5.34377 8.00004 5.19924 8.09379 5.05862C11.293 0.339866 16.0586 0.183616 18.9024 0.707054C19.3555 0.789085 19.7071 1.14455 19.793 1.59768C20.3164 4.44533 20.1563 9.20705 15.4414 12.4063C15.3047 12.5 15.1563 12.5938 15 12.6875V15.9024C15 16.8946 14.4766 17.8164 13.6211 18.3203L10.1641 20.3711C9.87504 20.543 9.51566 20.5469 9.22269 20.3789C8.92973 20.211 8.75004 19.9024 8.75004 19.5625V15.375C8.19926 15.5664 7.71879 15.7227 7.35551 15.8399C6.91801 15.9805 6.44144 15.8594 6.11332 15.5352H6.11723ZM15 7.06252C15.4144 7.06252 15.8119 6.8979 16.1049 6.60488C16.3979 6.31185 16.5625 5.91442 16.5625 5.50002C16.5625 5.08562 16.3979 4.68819 16.1049 4.39517C15.8119 4.10214 15.4144 3.93752 15 3.93752C14.5856 3.93752 14.1882 4.10214 13.8952 4.39517C13.6022 4.68819 13.4375 5.08562 13.4375 5.50002C13.4375 5.91442 13.6022 6.31185 13.8952 6.60488C14.1882 6.8979 14.5856 7.06252 15 7.06252Z" fill="#2563EB"/>
</g>
<defs>
<clipPath id="clip0_3_1798">
<path d="M0 0.5H20V20.5H0V0.5Z" fill="white"/>
</clipPath>
</defs>
</svg>
