<svg width="21" height="21" viewBox="0 0 21 21" fill="none" xmlns="http://www.w3.org/2000/svg">
<path d="M6.44535 15.5352L5.23832 14.3281C4.90629 13.9961 4.7891 13.5156 4.93754 13.0703C5.05473 12.7227 5.21098 12.2696 5.39848 11.75H1.26566C0.929725 11.75 0.617225 11.5703 0.449257 11.2774C0.281288 10.9844 0.285194 10.625 0.457069 10.336L2.50785 6.87893C3.01566 6.02346 3.93363 5.50002 4.92582 5.50002H8.14066C8.23441 5.34377 8.32816 5.19924 8.42191 5.05862C11.6211 0.339866 16.3868 0.183616 19.2305 0.707054C19.6836 0.789085 20.0352 1.14455 20.1211 1.59768C20.6446 4.44533 20.4844 9.20705 15.7696 12.4063C15.6329 12.5 15.4844 12.5938 15.3282 12.6875V15.9024C15.3282 16.8946 14.8047 17.8164 13.9493 18.3203L10.4922 20.3711C10.2032 20.543 9.84379 20.5469 9.55082 20.3789C9.25785 20.211 9.07816 19.9024 9.07816 19.5625V15.375C8.52738 15.5664 8.04691 15.7227 7.68363 15.8399C7.24613 15.9805 6.76957 15.8594 6.44144 15.5352H6.44535ZM15.3282 7.06252C15.7426 7.06252 16.14 6.8979 16.433 6.60488C16.726 6.31185 16.8907 5.91442 16.8907 5.50002C16.8907 5.08562 16.726 4.68819 16.433 4.39517C16.14 4.10214 15.7426 3.93752 15.3282 3.93752C14.9138 3.93752 14.5163 4.10214 14.2233 4.39517C13.9303 4.68819 13.7657 5.08562 13.7657 5.50002C13.7657 5.91442 13.9303 6.31185 14.2233 6.60488C14.5163 6.8979 14.9138 7.06252 15.3282 7.06252Z" fill="#16A34A"/>
</svg>
