<svg width="13" height="15" viewBox="0 0 13 15" fill="none" xmlns="http://www.w3.org/2000/svg">
<g clip-path="url(#clip0_3_2724)">
<path d="M12.6805 8.36807C13.0223 8.02627 13.0223 7.47119 12.6805 7.1294L8.30547 2.75439C7.96367 2.4126 7.40859 2.4126 7.0668 2.75439C6.725 3.09619 6.725 3.65127 7.0668 3.99307L9.95156 6.8751H1.5625C1.07852 6.8751 0.6875 7.26611 0.6875 7.7501C0.6875 8.23408 1.07852 8.6251 1.5625 8.6251H9.94883L7.06953 11.5071C6.72773 11.8489 6.72773 12.404 7.06953 12.7458C7.41133 13.0876 7.96641 13.0876 8.3082 12.7458L12.6832 8.3708L12.6805 8.36807Z" fill="white"/>
</g>
<defs>
<clipPath id="clip0_3_2724">
<path d="M0.6875 0.75H12.9375V14.75H0.6875V0.75Z" fill="white"/>
</clipPath>
</defs>
</svg>
