<svg width="17" height="16" viewBox="0 0 17 16" fill="none" xmlns="http://www.w3.org/2000/svg">
<path d="M11.5688 12.8906L3.20312 4.525C2.50312 5.50313 2.09375 6.70312 2.09375 8C2.09375 11.3125 4.78125 14 8.09375 14C9.39062 14 10.5906 13.5906 11.5688 12.8906ZM12.9844 11.475C13.6844 10.4969 14.0938 9.29688 14.0938 8C14.0938 4.6875 11.4062 2 8.09375 2C6.79688 2 5.59688 2.40937 4.61875 3.10938L12.9844 11.475ZM0.09375 8C0.09375 5.87827 0.936605 3.84344 2.4369 2.34315C3.93719 0.842855 5.97202 0 8.09375 0C10.2155 0 12.2503 0.842855 13.7506 2.34315C15.2509 3.84344 16.0938 5.87827 16.0938 8C16.0938 10.1217 15.2509 12.1566 13.7506 13.6569C12.2503 15.1571 10.2155 16 8.09375 16C5.97202 16 3.93719 15.1571 2.4369 13.6569C0.936605 12.1566 0.09375 10.1217 0.09375 8Z" fill="white"/>
</svg>
