<svg width="15" height="15" viewBox="0 0 15 15" fill="none" xmlns="http://www.w3.org/2000/svg">
<g clip-path="url(#clip0_3_3422)">
<g clip-path="url(#clip1_3_3422)">
<path d="M10.3688 12.0293L3.04883 4.70938C2.43633 5.56523 2.07812 6.61523 2.07812 7.75C2.07812 10.6484 4.42969 13 7.32812 13C8.46289 13 9.51289 12.6418 10.3688 12.0293ZM11.6074 10.7906C12.2199 9.93477 12.5781 8.88477 12.5781 7.75C12.5781 4.85156 10.2266 2.5 7.32812 2.5C6.19336 2.5 5.14336 2.8582 4.2875 3.4707L11.6074 10.7906ZM0.328125 7.75C0.328125 5.89348 1.06562 4.11301 2.37838 2.80025C3.69113 1.4875 5.47161 0.75 7.32812 0.75C9.18464 0.75 10.9651 1.4875 12.2779 2.80025C13.5906 4.11301 14.3281 5.89348 14.3281 7.75C14.3281 9.60652 13.5906 11.387 12.2779 12.6997C10.9651 14.0125 9.18464 14.75 7.32812 14.75C5.47161 14.75 3.69113 14.0125 2.37838 12.6997C1.06562 11.387 0.328125 9.60652 0.328125 7.75Z" fill="#DC2626"/>
</g>
</g>
<defs>
<clipPath id="clip0_3_3422">
<rect width="14" height="14" fill="white" transform="translate(0.328125 0.75)"/>
</clipPath>
<clipPath id="clip1_3_3422">
<path d="M0.328125 0.75H14.3281V14.75H0.328125V0.75Z" fill="white"/>
</clipPath>
</defs>
</svg>
