<svg width="15" height="16" viewBox="0 0 15 16" fill="none" xmlns="http://www.w3.org/2000/svg">
<g clip-path="url(#clip0_3_1099)">
<path d="M0.324951 7.29377C-0.0656738 7.6844 -0.0656738 8.31877 0.324951 8.7094L5.32495 13.7094C5.71558 14.1 6.34995 14.1 6.74058 13.7094C7.1312 13.3188 7.1312 12.6844 6.74058 12.2938L3.4437 9.00002H13.0312C13.5843 9.00002 14.0312 8.55315 14.0312 8.00002C14.0312 7.4469 13.5843 7.00002 13.0312 7.00002H3.44683L6.73745 3.70627C7.12808 3.31565 7.12808 2.68127 6.73745 2.29065C6.34683 1.90002 5.71245 1.90002 5.32183 2.29065L0.321826 7.29065L0.324951 7.29377Z" fill="#374151"/>
</g>
<defs>
<clipPath id="clip0_3_1099">
<path d="M0.03125 0H14.0312V16H0.03125V0Z" fill="white"/>
</clipPath>
</defs>
</svg>
