<svg width="24" height="22" viewBox="0 0 24 22" fill="none" xmlns="http://www.w3.org/2000/svg">
<path d="M6.3375 4.50313L5.11406 8H18.8859L17.6625 4.50313C17.4516 3.90313 16.8844 3.5 16.2469 3.5H7.75312C7.11562 3.5 6.54844 3.90313 6.3375 4.50313ZM1.85625 8.225L3.50625 3.51406C4.13906 1.70938 5.84062 0.5 7.75312 0.5H16.2469C18.1594 0.5 19.8609 1.70938 20.4938 3.51406L22.1437 8.225C23.2312 8.675 24 9.74844 24 11V17.75V20C24 20.8297 23.3297 21.5 22.5 21.5H21C20.1703 21.5 19.5 20.8297 19.5 20V17.75H4.5V20C4.5 20.8297 3.82969 21.5 3 21.5H1.5C0.670312 21.5 0 20.8297 0 20V17.75V11C0 9.74844 0.76875 8.675 1.85625 8.225ZM6 12.5C6 12.1022 5.84196 11.7206 5.56066 11.4393C5.27936 11.158 4.89782 11 4.5 11C4.10218 11 3.72064 11.158 3.43934 11.4393C3.15804 11.7206 3 12.1022 3 12.5C3 12.8978 3.15804 13.2794 3.43934 13.5607C3.72064 13.842 4.10218 14 4.5 14C4.89782 14 5.27936 13.842 5.56066 13.5607C5.84196 13.2794 6 12.8978 6 12.5ZM19.5 14C19.8978 14 20.2794 13.842 20.5607 13.5607C20.842 13.2794 21 12.8978 21 12.5C21 12.1022 20.842 11.7206 20.5607 11.4393C20.2794 11.158 19.8978 11 19.5 11C19.1022 11 18.7206 11.158 18.4393 11.4393C18.158 11.7206 18 12.1022 18 12.5C18 12.8978 18.158 13.2794 18.4393 13.5607C18.7206 13.842 19.1022 14 19.5 14Z" fill="white"/>
</svg>
