<svg width="20" height="19" viewBox="0 0 20 19" fill="none" xmlns="http://www.w3.org/2000/svg">
<path d="M5.28125 4.08594L4.26172 7H15.7383L14.7188 4.08594C14.543 3.58594 14.0703 3.25 13.5391 3.25H6.46094C5.92969 3.25 5.45703 3.58594 5.28125 4.08594ZM1.54688 7.1875L2.92188 3.26172C3.44922 1.75781 4.86719 0.75 6.46094 0.75H13.5391C15.1328 0.75 16.5508 1.75781 17.0781 3.26172L18.4531 7.1875C19.3594 7.5625 20 8.45703 20 9.5V15.125V17C20 17.6914 19.4414 18.25 18.75 18.25H17.5C16.8086 18.25 16.25 17.6914 16.25 17V15.125H3.75V17C3.75 17.6914 3.19141 18.25 2.5 18.25H1.25C0.558594 18.25 0 17.6914 0 17V15.125V9.5C0 8.45703 0.640625 7.5625 1.54688 7.1875ZM5 10.75C5 10.4185 4.8683 10.1005 4.63388 9.86612C4.39946 9.6317 4.08152 9.5 3.75 9.5C3.41848 9.5 3.10054 9.6317 2.86612 9.86612C2.6317 10.1005 2.5 10.4185 2.5 10.75C2.5 11.0815 2.6317 11.3995 2.86612 11.6339C3.10054 11.8683 3.41848 12 3.75 12C4.08152 12 4.39946 11.8683 4.63388 11.6339C4.8683 11.3995 5 11.0815 5 10.75ZM16.25 12C16.5815 12 16.8995 11.8683 17.1339 11.6339C17.3683 11.3995 17.5 11.0815 17.5 10.75C17.5 10.4185 17.3683 10.1005 17.1339 9.86612C16.8995 9.6317 16.5815 9.5 16.25 9.5C15.9185 9.5 15.6005 9.6317 15.3661 9.86612C15.1317 10.1005 15 10.4185 15 10.75C15 11.0815 15.1317 11.3995 15.3661 11.6339C15.6005 11.8683 15.9185 12 16.25 12Z" fill="#008AD5"/>
</svg>
