<svg width="15" height="16" viewBox="0 0 15 16" fill="none" xmlns="http://www.w3.org/2000/svg">
<g clip-path="url(#clip0_3_1037)">
<path d="M2.39062 1C1.2875 1 0.390625 1.89688 0.390625 3V13C0.390625 14.1031 1.2875 15 2.39062 15H12.3906C13.4937 15 14.3906 14.1031 14.3906 13V5.41563C14.3906 4.88438 14.1812 4.375 13.8062 4L11.3906 1.58438C11.0156 1.20938 10.5063 1 9.975 1H2.39062ZM2.39062 4C2.39062 3.44688 2.8375 3 3.39062 3H9.39062C9.94375 3 10.3906 3.44688 10.3906 4V6C10.3906 6.55312 9.94375 7 9.39062 7H3.39062C2.8375 7 2.39062 6.55312 2.39062 6V4ZM7.39062 9C7.92106 9 8.42977 9.21071 8.80484 9.58579C9.17991 9.96086 9.39062 10.4696 9.39062 11C9.39062 11.5304 9.17991 12.0391 8.80484 12.4142C8.42977 12.7893 7.92106 13 7.39062 13C6.86019 13 6.35148 12.7893 5.97641 12.4142C5.60134 12.0391 5.39062 11.5304 5.39062 11C5.39062 10.4696 5.60134 9.96086 5.97641 9.58579C6.35148 9.21071 6.86019 9 7.39062 9Z" fill="white"/>
</g>
<defs>
<clipPath id="clip0_3_1037">
<path d="M0.390625 0H14.3906V16H0.390625V0Z" fill="white"/>
</clipPath>
</defs>
</svg>
