<svg width="13" height="15" viewBox="0 0 13 15" fill="none" xmlns="http://www.w3.org/2000/svg">
<path d="M3.88437 1.23398L3.6875 1.625H1.0625C0.578516 1.625 0.1875 2.01602 0.1875 2.5C0.1875 2.98398 0.578516 3.375 1.0625 3.375H11.5625C12.0465 3.375 12.4375 2.98398 12.4375 2.5C12.4375 2.01602 12.0465 1.625 11.5625 1.625H8.9375L8.74062 1.23398C8.59297 0.935938 8.28945 0.75 7.95859 0.75H4.66641C4.33555 0.75 4.03203 0.935938 3.88437 1.23398ZM11.5625 4.25H1.0625L1.64219 13.5195C1.68594 14.2113 2.26016 14.75 2.95195 14.75H9.67305C10.3648 14.75 10.9391 14.2113 10.9828 13.5195L11.5625 4.25Z" fill="#DC2626"/>
</svg>
