<svg width="64" height="64" viewBox="0 0 64 64" fill="none" xmlns="http://www.w3.org/2000/svg">
<path d="M52 0C58.6274 0 64 5.37258 64 12V52C64 58.6274 58.6274 64 52 64H12C5.37258 64 0 58.6274 0 52V12C0 5.37258 5.37258 0 12 0H52Z" fill="#008AD5"/>
<path d="M52 0C58.6274 0 64 5.37258 64 12V52C64 58.6274 58.6274 64 52 64H12C5.37258 64 0 58.6274 0 52V12C0 5.37258 5.37258 0 12 0H52Z" stroke="#E5E7EB"/>
<path d="M44 48H20V16H44V48Z" stroke="#E5E7EB"/>
<path d="M44 43H20V19H44V43Z" stroke="#E5E7EB"/>
<path d="M26.3375 24.5031L25.1141 28H38.8859L37.6625 24.5031C37.4516 23.9031 36.8844 23.5 36.2469 23.5H27.7531C27.1156 23.5 26.5484 23.9031 26.3375 24.5031ZM21.8562 28.225L23.5063 23.5141C24.1391 21.7094 25.8406 20.5 27.7531 20.5H36.2469C38.1594 20.5 39.8609 21.7094 40.4938 23.5141L42.1437 28.225C43.2312 28.675 44 29.7484 44 31V37.75V40C44 40.8297 43.3297 41.5 42.5 41.5H41C40.1703 41.5 39.5 40.8297 39.5 40V37.75H24.5V40C24.5 40.8297 23.8297 41.5 23 41.5H21.5C20.6703 41.5 20 40.8297 20 40V37.75V31C20 29.7484 20.7687 28.675 21.8562 28.225ZM26 32.5C26 32.1022 25.842 31.7206 25.5607 31.4393C25.2794 31.158 24.8978 31 24.5 31C24.1022 31 23.7206 31.158 23.4393 31.4393C23.158 31.7206 23 32.1022 23 32.5C23 32.8978 23.158 33.2794 23.4393 33.5607C23.7206 33.842 24.1022 34 24.5 34C24.8978 34 25.2794 33.842 25.5607 33.5607C25.842 33.2794 26 32.8978 26 32.5ZM39.5 34C39.8978 34 40.2794 33.842 40.5607 33.5607C40.842 33.2794 41 32.8978 41 32.5C41 32.1022 40.842 31.7206 40.5607 31.4393C40.2794 31.158 39.8978 31 39.5 31C39.1022 31 38.7206 31.158 38.4393 31.4393C38.158 31.7206 38 32.1022 38 32.5C38 32.8978 38.158 33.2794 38.4393 33.5607C38.7206 33.842 39.1022 34 39.5 34Z" fill="white"/>
</svg>
