<svg width="15" height="15" viewBox="0 0 15 15" fill="none" xmlns="http://www.w3.org/2000/svg">
<g clip-path="url(#clip0_319_1380)">
<path d="M13.3484 1.34341C12.7496 0.74458 11.7816 0.74458 11.1828 1.34341L10.3598 2.16372L13.0367 4.84067L13.8598 4.01763C14.4586 3.4188 14.4586 2.45083 13.8598 1.852L13.3484 1.34341ZM5.16719 7.35903C5.00039 7.52583 4.87187 7.73091 4.79805 7.95786L3.98867 10.386C3.90937 10.6211 3.97227 10.8809 4.14727 11.0586C4.32227 11.2364 4.58203 11.2965 4.81992 11.2172L7.24805 10.4079C7.47227 10.334 7.67734 10.2055 7.84687 10.0387L12.4215 5.46138L9.7418 2.78169L5.16719 7.35903ZM3.07812 2.50005C1.62891 2.50005 0.453125 3.67583 0.453125 5.12505V12.125C0.453125 13.5743 1.62891 14.75 3.07812 14.75H10.0781C11.5273 14.75 12.7031 13.5743 12.7031 12.125V9.50005C12.7031 9.01606 12.3121 8.62505 11.8281 8.62505C11.3441 8.62505 10.9531 9.01606 10.9531 9.50005V12.125C10.9531 12.609 10.5621 13 10.0781 13H3.07812C2.59414 13 2.20312 12.609 2.20312 12.125V5.12505C2.20312 4.64106 2.59414 4.25005 3.07812 4.25005H5.70312C6.18711 4.25005 6.57812 3.85903 6.57812 3.37505C6.57812 2.89106 6.18711 2.50005 5.70312 2.50005H3.07812Z" fill="#374151"/>
</g>
<defs>
<clipPath id="clip0_319_1380">
<path d="M0.453125 0.75H14.4531V14.75H0.453125V0.75Z" fill="white"/>
</clipPath>
</defs>
</svg>
