<svg width="15" height="16" viewBox="0 0 15 16" fill="none" xmlns="http://www.w3.org/2000/svg">
<path d="M2.3125 1C2.3125 0.446875 1.86563 0 1.3125 0C0.759375 0 0.3125 0.446875 0.3125 1V2V11.5V15C0.3125 15.5531 0.759375 16 1.3125 16C1.86563 16 2.3125 15.5531 2.3125 15V11L4.32188 10.4969C5.60625 10.175 6.96562 10.325 8.15 10.9156C9.53125 11.6062 11.1344 11.6906 12.5781 11.1469L13.6625 10.7406C14.0531 10.5938 14.3125 10.2219 14.3125 9.80313V2.06562C14.3125 1.34687 13.5563 0.878125 12.9125 1.2L12.6125 1.35C11.1656 2.075 9.4625 2.075 8.01562 1.35C6.91875 0.8 5.65938 0.6625 4.46875 0.959375L2.3125 1.5V1Z" fill="white"/>
</svg>
