<svg width="13" height="15" viewBox="0 0 13 15" fill="none" xmlns="http://www.w3.org/2000/svg">
<g clip-path="url(#clip0_3_3419)">
<g clip-path="url(#clip1_3_3419)">
<path d="M1.82812 1.625C1.82812 1.14102 1.43711 0.75 0.953125 0.75C0.469141 0.75 0.078125 1.14102 0.078125 1.625V2.5V10.8125V13.875C0.078125 14.359 0.469141 14.75 0.953125 14.75C1.43711 14.75 1.82812 14.359 1.82812 13.875V10.375L3.58633 9.93477C4.71016 9.65312 5.89961 9.78437 6.93594 10.3012C8.14453 10.9055 9.54727 10.9793 10.8105 10.5035L11.7594 10.148C12.1012 10.0195 12.3281 9.69414 12.3281 9.32773V2.55742C12.3281 1.92852 11.6664 1.51836 11.1031 1.8L10.8406 1.93125C9.57461 2.56563 8.08438 2.56563 6.81836 1.93125C5.85859 1.45 4.75664 1.32969 3.71484 1.58945L1.82812 2.0625V1.625Z" fill="#CA8A04"/>
</g>
</g>
<defs>
<clipPath id="clip0_3_3419">
<rect width="12.25" height="14" fill="white" transform="translate(0.078125 0.75)"/>
</clipPath>
<clipPath id="clip1_3_3419">
<path d="M0.078125 0.75H12.3281V14.75H0.078125V0.75Z" fill="white"/>
</clipPath>
</defs>
</svg>
