<svg width="15" height="15" viewBox="0 0 15 15" fill="none" xmlns="http://www.w3.org/2000/svg">
<g clip-path="url(#clip0_3_2682)">
<path d="M7.51564 0.75C7.64142 0.75 7.7672 0.777344 7.88204 0.829297L13.0309 3.01406C13.6324 3.26836 14.0809 3.86172 14.0781 4.57812C14.0645 7.29063 12.9488 12.2535 8.23751 14.5094C7.78087 14.7281 7.2504 14.7281 6.79376 14.5094C2.08243 12.2535 0.966809 7.29063 0.953137 4.57812C0.950403 3.86172 1.39884 3.26836 2.0004 3.01406L7.15197 0.829297C7.26407 0.777344 7.38986 0.75 7.51564 0.75ZM7.51564 2.57656V12.9125C11.2891 11.0859 12.3035 7.0418 12.3281 4.61641L7.51564 2.57656Z" fill="#008AD5"/>
</g>
<defs>
<clipPath id="clip0_3_2682">
<path d="M0.515625 0.75H14.5156V14.75H0.515625V0.75Z" fill="white"/>
</clipPath>
</defs>
</svg>
