<svg width="17" height="16" viewBox="0 0 17 16" fill="none" xmlns="http://www.w3.org/2000/svg">
<path d="M8.09375 16C10.2155 16 12.2503 15.1571 13.7506 13.6569C15.2509 12.1566 16.0938 10.1217 16.0938 8C16.0938 5.87827 15.2509 3.84344 13.7506 2.34315C12.2503 0.842855 10.2155 0 8.09375 0C5.97202 0 3.93719 0.842855 2.4369 2.34315C0.936605 3.84344 0.09375 5.87827 0.09375 8C0.09375 10.1217 0.936605 12.1566 2.4369 13.6569C3.93719 15.1571 5.97202 16 8.09375 16ZM6.84375 10.5H7.59375V8.5H6.84375C6.42812 8.5 6.09375 8.16562 6.09375 7.75C6.09375 7.33437 6.42812 7 6.84375 7H8.34375C8.75937 7 9.09375 7.33437 9.09375 7.75V10.5H9.34375C9.75937 10.5 10.0938 10.8344 10.0938 11.25C10.0938 11.6656 9.75937 12 9.34375 12H6.84375C6.42812 12 6.09375 11.6656 6.09375 11.25C6.09375 10.8344 6.42812 10.5 6.84375 10.5ZM8.09375 4C8.35897 4 8.61332 4.10536 8.80086 4.29289C8.98839 4.48043 9.09375 4.73478 9.09375 5C9.09375 5.26522 8.98839 5.51957 8.80086 5.70711C8.61332 5.89464 8.35897 6 8.09375 6C7.82853 6 7.57418 5.89464 7.38664 5.70711C7.19911 5.51957 7.09375 5.26522 7.09375 5C7.09375 4.73478 7.19911 4.48043 7.38664 4.29289C7.57418 4.10536 7.82853 4 8.09375 4Z" fill="white"/>
</svg>
