<svg width="36" height="37" viewBox="0 0 36 37" fill="none" xmlns="http://www.w3.org/2000/svg">
<path d="M36 36.5H0V0.5H36V36.5Z" stroke="#E5E7EB"/>
<path d="M3.375 5C1.51172 5 0 6.51172 0 8.375C0 9.43672 0.499219 10.4352 1.35 11.075L16.65 22.55C17.4516 23.1477 18.5484 23.1477 19.35 22.55L34.65 11.075C35.5008 10.4352 36 9.43672 36 8.375C36 6.51172 34.4883 5 32.625 5H3.375ZM0 12.875V27.5C0 29.982 2.01797 32 4.5 32H31.5C33.982 32 36 29.982 36 27.5V12.875L20.7 24.35C19.0969 25.5523 16.9031 25.5523 15.3 24.35L0 12.875Z" fill="#008AD5"/>
</svg>
