<svg width="41" height="32" viewBox="0 0 41 32" fill="none" xmlns="http://www.w3.org/2000/svg">
<path d="M0 4.75H40.5C40.5 2.26797 38.482 0.25 36 0.25H4.5C2.01797 0.25 0 2.26797 0 4.75ZM0 7V27.25C0 29.732 2.01797 31.75 4.5 31.75H36C38.482 31.75 40.5 29.732 40.5 27.25V7H0ZM4.5 26.4977C4.5 24.4234 6.18047 22.75 8.24766 22.75H16.5023C18.5766 22.75 20.25 24.4305 20.25 26.4977C20.25 26.9125 19.9125 27.25 19.4977 27.25H5.25234C4.8375 27.25 4.5 26.9125 4.5 26.4977ZM12.375 11.5C13.5685 11.5 14.7131 11.9741 15.557 12.818C16.4009 13.6619 16.875 14.8065 16.875 16C16.875 17.1935 16.4009 18.3381 15.557 19.182C14.7131 20.0259 13.5685 20.5 12.375 20.5C11.1815 20.5 10.0369 20.0259 9.19302 19.182C8.34911 18.3381 7.875 17.1935 7.875 16C7.875 14.8065 8.34911 13.6619 9.19302 12.818C10.0369 11.9741 11.1815 11.5 12.375 11.5ZM24.75 12.625C24.75 12.0063 25.2563 11.5 25.875 11.5H34.875C35.4938 11.5 36 12.0063 36 12.625C36 13.2437 35.4938 13.75 34.875 13.75H25.875C25.2563 13.75 24.75 13.2437 24.75 12.625ZM24.75 17.125C24.75 16.5063 25.2563 16 25.875 16H34.875C35.4938 16 36 16.5063 36 17.125C36 17.7437 35.4938 18.25 34.875 18.25H25.875C25.2563 18.25 24.75 17.7437 24.75 17.125ZM24.75 21.625C24.75 21.0063 25.2563 20.5 25.875 20.5H34.875C35.4938 20.5 36 21.0063 36 21.625C36 22.2437 35.4938 22.75 34.875 22.75H25.875C25.2563 22.75 24.75 22.2437 24.75 21.625Z" fill="#3B82F6"/>
</svg>
