<svg width="36" height="36" viewBox="0 0 36 36" fill="none" xmlns="http://www.w3.org/2000/svg">
<path d="M36 36H0V0H36V36Z" stroke="#E5E7EB"/>
<path d="M0 4.5C0 2.01797 2.01797 0 4.5 0H15.75V9C15.75 10.2445 16.7555 11.25 18 11.25H27V21.375H12.375C9.89297 21.375 7.875 23.393 7.875 25.875V36H4.5C2.01797 36 0 33.982 0 31.5V4.5ZM27 9H18V0L27 9ZM12.375 24.75H14.625C16.7977 24.75 18.5625 26.5148 18.5625 28.6875C18.5625 30.8602 16.7977 32.625 14.625 32.625H13.5V34.875C13.5 35.4938 12.9937 36 12.375 36C11.7563 36 11.25 35.4938 11.25 34.875V31.5V25.875C11.25 25.2563 11.7563 24.75 12.375 24.75ZM14.625 30.375C15.5602 30.375 16.3125 29.6227 16.3125 28.6875C16.3125 27.7523 15.5602 27 14.625 27H13.5V30.375H14.625ZM21.375 24.75H23.625C25.4883 24.75 27 26.2617 27 28.125V32.625C27 34.4883 25.4883 36 23.625 36H21.375C20.7563 36 20.25 35.4938 20.25 34.875V25.875C20.25 25.2563 20.7563 24.75 21.375 24.75ZM23.625 33.75C24.2437 33.75 24.75 33.2438 24.75 32.625V28.125C24.75 27.5063 24.2437 27 23.625 27H22.5V33.75H23.625ZM29.25 25.875C29.25 25.2563 29.7563 24.75 30.375 24.75H33.75C34.3688 24.75 34.875 25.2563 34.875 25.875C34.875 26.4937 34.3688 27 33.75 27H31.5V29.25H33.75C34.3688 29.25 34.875 29.7563 34.875 30.375C34.875 30.9937 34.3688 31.5 33.75 31.5H31.5V34.875C31.5 35.4938 30.9937 36 30.375 36C29.7563 36 29.25 35.4938 29.25 34.875V30.375V25.875Z" fill="#EF4444"/>
</svg>
