<svg width="26" height="16" viewBox="0 0 26 16" fill="none" xmlns="http://www.w3.org/2000/svg">
<path d="M13.1328 1.32812L9.35156 4.39063C8.72266 4.89844 8.60156 5.8125 9.07812 6.46484C9.58203 7.16016 10.5625 7.29688 11.2383 6.76953L15.1172 3.75391C15.3906 3.54297 15.7812 3.58984 15.9961 3.86328C16.2109 4.13672 16.1602 4.52734 15.8867 4.74219L15.0703 5.375L20.5 10.375V3H20.4727L20.3203 2.90234L17.4844 1.08594C16.8867 0.703125 16.1875 0.5 15.4766 0.5C14.625 0.5 13.7969 0.792969 13.1328 1.32812ZM14.0234 6.1875L12.0039 7.75781C10.7734 8.71875 8.98828 8.46875 8.06641 7.20312C7.19922 6.01172 7.41797 4.34766 8.5625 3.42188L11.8125 0.792969C11.3594 0.601562 10.8711 0.503906 10.375 0.503906C9.64062 0.5 8.92578 0.71875 8.3125 1.125L5.5 3V11.75H6.60156L10.1719 15.0078C10.9375 15.707 12.1211 15.6523 12.8203 14.8867C13.0352 14.6484 13.1797 14.3711 13.2539 14.082L13.918 14.6914C14.6797 15.3906 15.8672 15.3398 16.5664 14.5781C16.7422 14.3867 16.8711 14.1641 16.9531 13.9336C17.7109 14.4414 18.7422 14.3359 19.3789 13.6406C20.0781 12.8789 20.0273 11.6914 19.2656 10.9922L14.0234 6.1875ZM1.125 3C0.78125 3 0.5 3.28125 0.5 3.625V11.75C0.5 12.4414 1.05859 13 1.75 13H3C3.69141 13 4.25 12.4414 4.25 11.75V3H1.125ZM2.375 10.5C2.54076 10.5 2.69973 10.5658 2.81694 10.6831C2.93415 10.8003 3 10.9592 3 11.125C3 11.2908 2.93415 11.4497 2.81694 11.5669C2.69973 11.6842 2.54076 11.75 2.375 11.75C2.20924 11.75 2.05027 11.6842 1.93306 11.5669C1.81585 11.4497 1.75 11.2908 1.75 11.125C1.75 10.9592 1.81585 10.8003 1.93306 10.6831C2.05027 10.5658 2.20924 10.5 2.375 10.5ZM21.75 3V11.75C21.75 12.4414 22.3086 13 23 13H24.25C24.9414 13 25.5 12.4414 25.5 11.75V3.625C25.5 3.28125 25.2188 3 24.875 3H21.75ZM23 11.125C23 10.9592 23.0658 10.8003 23.1831 10.6831C23.3003 10.5658 23.4592 10.5 23.625 10.5C23.7908 10.5 23.9497 10.5658 24.0669 10.6831C24.1842 10.8003 24.25 10.9592 24.25 11.125C24.25 11.2908 24.1842 11.4497 24.0669 11.5669C23.9497 11.6842 23.7908 11.75 23.625 11.75C23.4592 11.75 23.3003 11.6842 23.1831 11.5669C23.0658 11.4497 23 11.2908 23 11.125Z" fill="#A855F7"/>
</svg>
