<svg width="14" height="12" viewBox="0 0 14 12" fill="none" xmlns="http://www.w3.org/2000/svg">
<path d="M7.44531 2.48438C7.7125 2.32031 7.89062 2.02266 7.89062 1.6875C7.89062 1.16953 7.47109 0.75 6.95312 0.75C6.43516 0.75 6.01562 1.16953 6.01562 1.6875C6.01562 2.025 6.19375 2.32031 6.46094 2.48438L5.11797 5.17031C4.90469 5.59688 4.35156 5.71875 3.97891 5.42109L1.89062 3.75C2.00781 3.59297 2.07812 3.39844 2.07812 3.1875C2.07812 2.66953 1.65859 2.25 1.14062 2.25C0.622656 2.25 0.203125 2.66953 0.203125 3.1875C0.203125 3.70547 0.622656 4.125 1.14062 4.125C1.14531 4.125 1.15234 4.125 1.15703 4.125L2.22813 10.0172C2.35703 10.7297 2.97812 11.25 3.70469 11.25H10.2016C10.9258 11.25 11.5469 10.732 11.6781 10.0172L12.7492 4.125C12.7539 4.125 12.7609 4.125 12.7656 4.125C13.2836 4.125 13.7031 3.70547 13.7031 3.1875C13.7031 2.66953 13.2836 2.25 12.7656 2.25C12.2477 2.25 11.8281 2.66953 11.8281 3.1875C11.8281 3.39844 11.8984 3.59297 12.0156 3.75L9.92734 5.42109C9.55469 5.71875 9.00156 5.59688 8.78828 5.17031L7.44531 2.48438Z" fill="#1E40AF"/>
</svg>
