<svg width="17" height="15" viewBox="0 0 17 15" fill="none" xmlns="http://www.w3.org/2000/svg">
<path d="M4.14689 1.05625C4.28751 0.865625 4.51251 0.75 4.75001 0.75H12.25C12.4875 0.75 12.7125 0.8625 12.8531 1.05625L16.3531 5.80625C16.5656 6.09375 16.5438 6.49062 16.3063 6.75625L9.05626 14.7563C8.91564 14.9125 8.71251 15.0031 8.50001 15.0031C8.28751 15.0031 8.08751 14.9125 7.94376 14.7563L0.693762 6.75625C0.453137 6.49062 0.434387 6.09375 0.646887 5.80625L4.14689 1.05625ZM5.35001 2.3C5.24689 2.37812 5.21876 2.51875 5.28439 2.62812L7.07814 5.61562L2.47814 6C2.35001 6.00938 2.25001 6.11875 2.25001 6.25C2.25001 6.38125 2.35001 6.4875 2.47814 6.5L8.47814 7C8.49064 7 8.50626 7 8.51876 7L14.5188 6.5C14.6469 6.49062 14.7469 6.38125 14.7469 6.25C14.7469 6.11875 14.6469 6.0125 14.5188 6L9.92189 5.61875L11.7156 2.63125C11.7813 2.52187 11.7531 2.37812 11.65 2.30312C11.5469 2.22812 11.4031 2.24062 11.3156 2.33437L8.50001 5.38125L5.68439 2.33125C5.59689 2.2375 5.45314 2.225 5.35001 2.3Z" fill="#16A34A"/>
</svg>
