<svg width="12" height="13" viewBox="0 0 12 13" fill="none" xmlns="http://www.w3.org/2000/svg">
<path d="M0 1.9377V6.0256C0 6.49044 0.183203 6.93614 0.511328 7.26427L5.32383 12.0768C6.00742 12.7604 7.11484 12.7604 7.79844 12.0768L11.4488 8.42638C12.1324 7.74278 12.1324 6.63536 11.4488 5.95177L6.63633 1.13927C6.3082 0.811142 5.8625 0.627939 5.39766 0.627939H1.3125C0.587891 0.625205 0 1.2131 0 1.9377ZM3.0625 2.81271C3.29456 2.81271 3.51712 2.90489 3.68122 3.06899C3.84531 3.23308 3.9375 3.45564 3.9375 3.68771C3.9375 3.91977 3.84531 4.14233 3.68122 4.30642C3.51712 4.47052 3.29456 4.5627 3.0625 4.5627C2.83044 4.5627 2.60788 4.47052 2.44378 4.30642C2.27969 4.14233 2.1875 3.91977 2.1875 3.68771C2.1875 3.45564 2.27969 3.23308 2.44378 3.06899C2.60788 2.90489 2.83044 2.81271 3.0625 2.81271Z" fill="#4B5563"/>
</svg>
