<svg width="48" height="48" viewBox="0 0 48 48" fill="none" xmlns="http://www.w3.org/2000/svg">
<path d="M40 0C44.4183 0 48 3.58172 48 8V40C48 44.4183 44.4183 48 40 48H8C3.58172 48 0 44.4183 0 40V8C5.15405e-07 3.58172 3.58172 0 8 0H40Z" fill="#FEE2E2"/>
<path d="M40 0C44.4183 0 48 3.58172 48 8V40C48 44.4183 44.4183 48 40 48H8C3.58172 48 0 44.4183 0 40V8C5.15405e-07 3.58172 3.58172 0 8 0H40Z" stroke="#E5E7EB"/>
<path d="M34 34H14V14H34V34Z" stroke="#E5E7EB"/>
<g clip-path="url(#clip0_3_1207)">
<path d="M24 34C26.6522 34 29.1957 32.9464 31.0711 31.0711C32.9464 29.1957 34 26.6522 34 24C34 21.3478 32.9464 18.8043 31.0711 16.9289C29.1957 15.0536 26.6522 14 24 14C21.3478 14 18.8043 15.0536 16.9289 16.9289C15.0536 18.8043 14 21.3478 14 24C14 26.6522 15.0536 29.1957 16.9289 31.0711C18.8043 32.9464 21.3478 34 24 34ZM20.8359 20.8359C21.2031 20.4688 21.7969 20.4688 22.1602 20.8359L23.9961 22.6719L25.832 20.8359C26.1992 20.4688 26.793 20.4688 27.1562 20.8359C27.5195 21.2031 27.5234 21.7969 27.1562 22.1602L25.3203 23.9961L27.1562 25.832C27.5234 26.1992 27.5234 26.793 27.1562 27.1562C26.7891 27.5195 26.1953 27.5234 25.832 27.1562L23.9961 25.3203L22.1602 27.1562C21.793 27.5234 21.1992 27.5234 20.8359 27.1562C20.4727 26.7891 20.4688 26.1953 20.8359 25.832L22.6719 23.9961L20.8359 22.1602C20.4688 21.793 20.4688 21.1992 20.8359 20.8359Z" fill="#DC2626"/>
</g>
<defs>
<clipPath id="clip0_3_1207">
<path d="M14 14H34V34H14V14Z" fill="white"/>
</clipPath>
</defs>
</svg>
