<svg width="11" height="10" viewBox="0 0 11 10" fill="none" xmlns="http://www.w3.org/2000/svg">
<path d="M10.4405 1.70664C10.8312 1.31602 10.8312 0.681641 10.4405 0.291016C10.0499 -0.0996094 9.41553 -0.0996094 9.0249 0.291016L5.73428 3.58477L2.44053 0.294141C2.0499 -0.0964844 1.41553 -0.0964844 1.0249 0.294141C0.634277 0.684766 0.634277 1.31914 1.0249 1.70977L4.31865 5.00039L1.02803 8.29414C0.637402 8.68476 0.637402 9.31914 1.02803 9.70977C1.41865 10.1004 2.05303 10.1004 2.44365 9.70977L5.73428 6.41602L9.02803 9.70664C9.41865 10.0973 10.053 10.0973 10.4437 9.70664C10.8343 9.31602 10.8343 8.68164 10.4437 8.29102L7.1499 5.00039L10.4405 1.70664Z" fill="white"/>
</svg>
