<svg width="20" height="21" viewBox="0 0 20 21" fill="none" xmlns="http://www.w3.org/2000/svg">
<g clip-path="url(#clip0_611_646)">
<path d="M10 1.75C10.5547 1.75 11.0664 2.04297 11.3477 2.52344L19.7852 16.8984C20.0703 17.3828 20.0703 17.9805 19.793 18.4648C19.5156 18.9492 18.9961 19.25 18.4375 19.25H1.56252C1.00393 19.25 0.484398 18.9492 0.207054 18.4648C-0.0702894 17.9805 -0.0663832 17.3789 0.214867 16.8984L8.65237 2.52344C8.93362 2.04297 9.44534 1.75 10 1.75ZM10 6.75C9.48049 6.75 9.06252 7.16797 9.06252 7.6875V12.0625C9.06252 12.582 9.48049 13 10 13C10.5196 13 10.9375 12.582 10.9375 12.0625V7.6875C10.9375 7.16797 10.5196 6.75 10 6.75ZM11.25 15.5C11.25 15.1685 11.1183 14.8505 10.8839 14.6161C10.6495 14.3817 10.3315 14.25 10 14.25C9.6685 14.25 9.35056 14.3817 9.11614 14.6161C8.88172 14.8505 8.75002 15.1685 8.75002 15.5C8.75002 15.8315 8.88172 16.1495 9.11614 16.3839C9.35056 16.6183 9.6685 16.75 10 16.75C10.3315 16.75 10.6495 16.6183 10.8839 16.3839C11.1183 16.1495 11.25 15.8315 11.25 15.5Z" fill="#DC2626"/>
</g>
<defs>
<clipPath id="clip0_611_646">
<path d="M0 0.5H20V20.5H0V0.5Z" fill="white"/>
</clipPath>
</defs>
</svg>
