<svg width="26" height="15" viewBox="0 0 26 15" fill="none" xmlns="http://www.w3.org/2000/svg">
<path d="M12.7891 0.828125L9.00781 3.89063C8.37891 4.39844 8.25781 5.3125 8.73438 5.96484C9.23828 6.66016 10.2188 6.79688 10.8945 6.26953L14.7734 3.25391C15.0469 3.04297 15.4375 3.08984 15.6523 3.36328C15.8672 3.63672 15.8164 4.02734 15.543 4.24219L14.7266 4.875L20.1562 9.875V2.5H20.1289L19.9766 2.40234L17.1406 0.585938C16.543 0.203125 15.8438 0 15.1328 0C14.2812 0 13.4531 0.292969 12.7891 0.828125ZM13.6797 5.6875L11.6602 7.25781C10.4297 8.21875 8.64453 7.96875 7.72266 6.70312C6.85547 5.51172 7.07422 3.84766 8.21875 2.92188L11.4688 0.292969C11.0156 0.101562 10.5273 0.00390619 10.0312 0.00390619C9.29688 -5.96629e-08 8.58203 0.21875 7.96875 0.625L5.15625 2.5V11.25H6.25781L9.82812 14.5078C10.5938 15.207 11.7773 15.1523 12.4766 14.3867C12.6914 14.1484 12.8359 13.8711 12.9102 13.582L13.5742 14.1914C14.3359 14.8906 15.5234 14.8398 16.2227 14.0781C16.3984 13.8867 16.5273 13.6641 16.6094 13.4336C17.3672 13.9414 18.3984 13.8359 19.0352 13.1406C19.7344 12.3789 19.6836 11.1914 18.9219 10.4922L13.6797 5.6875ZM0.78125 2.5C0.4375 2.5 0.15625 2.78125 0.15625 3.125V11.25C0.15625 11.9414 0.714844 12.5 1.40625 12.5H2.65625C3.34766 12.5 3.90625 11.9414 3.90625 11.25V2.5H0.78125ZM2.03125 10C2.19701 10 2.35598 10.0658 2.47319 10.1831C2.5904 10.3003 2.65625 10.4592 2.65625 10.625C2.65625 10.7908 2.5904 10.9497 2.47319 11.0669C2.35598 11.1842 2.19701 11.25 2.03125 11.25C1.86549 11.25 1.70652 11.1842 1.58931 11.0669C1.4721 10.9497 1.40625 10.7908 1.40625 10.625C1.40625 10.4592 1.4721 10.3003 1.58931 10.1831C1.70652 10.0658 1.86549 10 2.03125 10ZM21.4062 2.5V11.25C21.4062 11.9414 21.9648 12.5 22.6562 12.5H23.9062C24.5977 12.5 25.1562 11.9414 25.1562 11.25V3.125C25.1562 2.78125 24.875 2.5 24.5312 2.5H21.4062ZM22.6562 10.625C22.6562 10.4592 22.7221 10.3003 22.8393 10.1831C22.9565 10.0658 23.1155 10 23.2812 10C23.447 10 23.606 10.0658 23.7232 10.1831C23.8404 10.3003 23.9062 10.4592 23.9062 10.625C23.9062 10.7908 23.8404 10.9497 23.7232 11.0669C23.606 11.1842 23.447 11.25 23.2812 11.25C23.1155 11.25 22.9565 11.1842 22.8393 11.0669C22.7221 10.9497 22.6562 10.7908 22.6562 10.625Z" fill="#16A34A"/>
</svg>
