<svg width="125" height="56" viewBox="0 0 125 56" fill="none" xmlns="http://www.w3.org/2000/svg">
<path d="M22.6607 44.2888C20.1238 44.2888 17.3233 44.1888 14.2682 43.9842L14.1728 41.7565C16.7414 42.0111 19.4283 42.1793 22.2333 42.2702C23.2881 42.2975 24.0746 42.3066 24.6019 42.3066C25.2566 42.3066 25.7612 42.3021 26.1158 42.2884V39.0378L17.9325 38.4013C16.5232 38.2877 15.5185 37.9604 14.9093 37.4148C14.3046 36.8647 14 36.0055 14 34.828C14 33.9005 14.1864 33.1595 14.5592 32.6094C14.932 32.0547 15.5276 31.6501 16.3504 31.3864C17.1779 31.1273 18.2735 31 19.6465 31C22.4515 31 25.1702 31.0909 27.8116 31.2637L27.8889 33.4914C25.2384 33.2004 22.5697 33.0367 19.8965 33.0004C19.4555 32.9867 18.8054 32.9822 17.9553 32.9822C17.337 32.9822 16.8687 32.9913 16.555 33.0004V36.21L24.2746 36.8056C25.3384 36.8965 26.1886 37.0693 26.8205 37.3375C27.457 37.6012 27.9207 37.9876 28.2117 38.4923C28.5072 38.9924 28.6572 39.6516 28.6572 40.4699C28.6572 41.411 28.4663 42.1566 28.0889 42.7067C27.7161 43.2522 27.0933 43.6478 26.2249 43.9023C25.3566 44.1524 24.17 44.2797 22.6652 44.2797L22.6607 44.2888Z" fill="#FAFAFA"/>
<path d="M39.7042 44.2886C37.331 44.2886 35.558 44.1068 34.3896 43.7476C33.2212 43.3885 32.412 42.752 31.9573 41.8336C31.5027 40.9198 31.2754 39.5241 31.2754 37.6465C31.2754 35.7689 31.5027 34.3777 31.9573 33.4594C32.412 32.5456 33.2212 31.9046 34.3896 31.5454C35.558 31.1862 37.3265 31.0044 39.7042 31.0044C42.0819 31.0044 43.8459 31.1862 45.0188 31.5454C46.1917 31.9046 47.001 32.5456 47.4511 33.4594C47.9057 34.3777 48.133 35.7689 48.133 37.6465C48.133 39.5241 47.9057 40.9198 47.4511 41.8336C47.001 42.752 46.1917 43.3885 45.0188 43.7476C43.8504 44.1068 42.0774 44.2886 39.7042 44.2886ZM39.7042 42.161C41.8182 42.161 43.7595 42.0291 45.528 41.7609V33.5412C43.7595 33.2775 41.8182 33.1411 39.7042 33.1411C37.5902 33.1411 35.6535 33.273 33.8804 33.5412V41.7609C35.6535 42.0246 37.5947 42.161 39.7042 42.161Z" fill="#FAFAFA"/>
<path d="M59.3859 44.2887C57.2764 44.2887 55.6852 44.1341 54.6214 43.825C53.5621 43.5158 52.8211 42.9612 52.4028 42.1656C51.9891 41.3654 51.7891 40.1743 51.7891 38.5968V31.2363H54.1486V41.7792C55.808 42.0337 57.5537 42.1565 59.3859 42.1565C61.218 42.1565 62.9729 42.0292 64.6323 41.7792V31.2363H66.9918V38.5968C66.9918 40.1743 66.7827 41.3654 66.3644 42.1656C65.9462 42.9612 65.2097 43.5158 64.1595 43.825C63.1048 44.1341 61.5136 44.2887 59.3859 44.2887Z" fill="#FAFAFA"/>
<path d="M89.041 44.9162C87.1089 44.7116 85.3358 44.557 83.7264 44.4525C82.1171 44.3434 80.003 44.2297 77.3889 44.1024C75.4977 44.016 74.1065 43.8251 73.2109 43.525C72.3153 43.2295 71.6606 42.6431 71.2514 41.7747C70.8377 40.9018 70.6377 39.5289 70.6377 37.6558C70.6377 35.7827 70.865 34.387 71.3196 33.4687C71.7743 32.5549 72.5835 31.9138 73.7519 31.5547C74.9203 31.1955 76.6888 31.0137 79.0665 31.0137C81.4442 31.0137 83.2082 31.1955 84.3811 31.5547C85.554 31.9138 86.3633 32.5549 86.8134 33.4687C87.268 34.387 87.4953 35.7782 87.4953 37.6558C87.4953 38.8742 87.4089 39.8744 87.2407 40.6472C87.068 41.4201 86.7906 42.043 86.4087 42.5249C86.7815 42.5521 87.068 42.5749 87.2725 42.6021C88.0181 42.6522 88.5728 42.6976 88.9501 42.734L89.0456 44.9207L89.041 44.9162ZM73.2427 41.8566C77.6299 42.0202 81.5124 42.2112 84.8948 42.4248V33.5414C83.1263 33.2777 81.1851 33.1413 79.071 33.1413C76.957 33.1413 75.0203 33.2732 73.2473 33.5414V41.8566H73.2427Z" fill="#FAFAFA"/>
<path d="M29.8983 55.9999C29.2391 55.9999 28.7117 55.8362 28.3071 55.4998C27.907 55.1679 27.7025 54.6906 27.6934 54.0768H29.0663C29.0709 54.3359 29.1436 54.536 29.2846 54.6724C29.43 54.8133 29.6346 54.8815 29.8983 54.8815C30.1438 54.8815 30.3302 54.836 30.4575 54.7406C30.5848 54.6451 30.6484 54.5178 30.6484 54.3541C30.6484 54.1723 30.5666 54.0313 30.4029 53.9359C30.2393 53.8359 29.9801 53.7313 29.6255 53.6222C29.2573 53.504 28.9527 53.3858 28.7072 53.2721C28.4662 53.1585 28.2616 52.9857 28.0934 52.7493C27.9207 52.5174 27.8388 52.2083 27.8388 51.8309C27.8388 51.5218 27.9252 51.249 28.0934 51.0081C28.2662 50.7671 28.5026 50.5807 28.8117 50.4489C29.1209 50.3125 29.471 50.2397 29.8619 50.2397C30.2211 50.2397 30.5575 50.3079 30.8667 50.4398C31.1804 50.5716 31.4395 50.7762 31.635 51.0444C31.8305 51.3172 31.9305 51.6491 31.9396 52.0492H30.5848C30.5848 51.8537 30.5211 51.69 30.4029 51.5582C30.2802 51.4263 30.1029 51.3581 29.8619 51.3581C29.6574 51.3581 29.5028 51.4036 29.3891 51.4991C29.2755 51.59 29.2164 51.7082 29.2164 51.8582C29.2164 52.0355 29.2982 52.1765 29.4619 52.2765C29.6255 52.3719 29.8801 52.472 30.2302 52.5811C30.5939 52.6947 30.8985 52.8129 31.1394 52.9311C31.3849 53.0448 31.5941 53.2221 31.7668 53.454C31.9441 53.6904 32.0305 53.9995 32.0305 54.3814C32.0305 54.6815 31.9441 54.9497 31.7759 55.1952C31.6123 55.4407 31.3668 55.6362 31.0485 55.7817C30.7303 55.9271 30.3484 55.9999 29.9029 55.9999H29.8983Z" fill="#FAFAFA"/>
<path d="M39.7678 55.8953H38.3358L37.9493 54.8041H35.8762L35.508 55.8953H34.0986L36.2127 50.3442H37.6629L39.7769 55.8953H39.7678ZM36.2445 53.6494H37.6084L36.9264 51.7263L36.2445 53.6494Z" fill="#FAFAFA"/>
<path d="M44.0421 52.4173L45.0559 50.3442H46.5425L44.7149 53.7539V55.8953H43.3329V53.7539L41.5234 50.3442H43.0283L44.0421 52.4173Z" fill="#FAFAFA"/>
<path d="M53.9798 55.8953H52.5477L52.1612 54.8041H50.0881L49.7199 55.8953H48.3105L50.4246 50.3442H51.8748L53.9889 55.8953H53.9798ZM50.4564 53.6494H51.8203L51.1383 51.7263L50.4564 53.6494Z" fill="#FAFAFA"/>
<path d="M59.5899 55.8953L58.076 54.0085H57.7805V55.8953H56.3984V50.3442H58.4261C58.8625 50.3442 59.2444 50.4261 59.5717 50.5806C59.8991 50.7307 60.1537 50.9489 60.331 51.2262C60.5128 51.5035 60.6037 51.8263 60.6037 52.1946C60.6037 52.5628 60.5128 52.8856 60.331 53.1629C60.1537 53.4357 59.8991 53.6448 59.5627 53.7903L61.2675 55.9043H59.5899V55.8953ZM57.7805 51.5081V52.8629H58.3579C58.6216 52.8629 58.8262 52.7992 58.9716 52.6719C59.1171 52.5446 59.1899 52.3855 59.1899 52.19C59.1899 51.9945 59.1171 51.8263 58.9716 51.699C58.8262 51.5717 58.6216 51.5081 58.3579 51.5081H57.7805Z" fill="#FAFAFA"/>
<path d="M68.5872 55.8953H67.1551L66.7687 54.8041H64.6956L64.3273 55.8953H62.918L65.032 50.3442H66.4823L68.5963 55.8953H68.5872ZM65.0638 53.6494H66.4277L65.7458 51.7263L65.0638 53.6494Z" fill="#FAFAFA"/>
<path d="M73.2567 55.8953H71.8746V51.5945H70.5107V50.3442H74.6024V51.5945H73.2567V55.8953Z" fill="#FAFAFA"/>
<g clip-path="url(#clip0_1197_12204)">
<path d="M3.22248 15.8867C3.22248 15.8867 3.97593 18.0879 2.09011 21.3661C2.09011 21.3661 1.71556 21.9476 4.39839 20.7846C7.08123 19.6215 12.7866 17.9199 41.8405 20.2461C41.8405 20.2461 18.235 16.0116 3.22248 15.8867Z" fill="#CCCCCC"/>
<path d="M21.4189 15.8867C21.4189 15.8867 39.846 19.3113 61.0735 19.6861C82.2966 20.0566 86.408 21.9907 88.9645 23.0676L103.559 23.4424C103.559 23.4424 94.0384 17.3901 66.8921 17.3169C42.764 17.2566 28.2131 16.1969 21.4189 15.8867Z" fill="#FAFAFA"/>
<path d="M5.88379 14.3918C5.88379 14.3918 13.684 16.1364 30.099 11.342C30.099 11.342 49.7847 4.30318 63.8086 16.5069C63.8086 16.5069 68.8084 16.382 71.9529 16.5069C71.9529 16.5069 54.4492 3.84657 35.4124 7.91303C22.9694 10.5709 19.2021 13.8706 5.88379 14.3918Z" fill="#FAFAFA"/>
<path d="M54.0226 0.00878906C46.6927 0.00878906 39.6241 0.452481 32.9736 1.28387C38.8314 0.654943 44.9854 0.318943 51.3354 0.318943C90.5326 0.318943 122.308 13.1171 122.308 28.9005C122.308 41.4832 102.126 52.1663 74.0872 55.9873C103.516 52.5023 125 41.5479 125 28.5731C125 12.7983 93.2198 0.00878906 54.0226 0.00878906Z" fill="#FAFAFA"/>
<path d="M50.0636 1.84375C30.5259 1.84375 12.8349 4.86775 0 9.75698C12.2034 6.09113 27.6994 3.90283 44.5673 3.90283C83.8995 3.90283 115.789 15.8222 115.789 30.5244C115.789 40.5354 101.007 49.2542 79.1567 53.8031C103.847 49.5471 121.041 40.053 121.041 29.0167C121.041 14.013 89.2652 1.84806 50.0636 1.84806V1.84375Z" fill="#CCCCCC"/>
</g>
<defs>
<clipPath id="clip0_1197_12204">
<rect width="125" height="56" fill="white"/>
</clipPath>
</defs>
</svg>
