<svg width="21" height="21" viewBox="0 0 21 21" fill="none" xmlns="http://www.w3.org/2000/svg">
<g clip-path="url(#clip0_611_652)">
<path d="M10.3281 2.375C5.83984 2.375 2.20312 6.01172 2.20312 10.5V12.0625C2.20312 12.582 1.78516 13 1.26562 13C0.746094 13 0.328125 12.582 0.328125 12.0625V10.5C0.328125 4.97656 4.80469 0.5 10.3281 0.5C15.8516 0.5 20.3281 4.97656 20.3281 10.5V16.1289C20.3281 18.0273 18.7891 19.5664 16.8867 19.5664L12.5781 19.5625C12.2539 20.1211 11.6484 20.5 10.9531 20.5H9.70312C8.66797 20.5 7.82812 19.6602 7.82812 18.625C7.82812 17.5898 8.66797 16.75 9.70312 16.75H10.9531C11.6484 16.75 12.2539 17.1289 12.5781 17.6875L16.8906 17.6914C17.7539 17.6914 18.4531 16.9922 18.4531 16.1289V10.5C18.4531 6.01172 14.8164 2.375 10.3281 2.375ZM5.95312 8.625H6.57812C7.26953 8.625 7.82812 9.18359 7.82812 9.875V14.25C7.82812 14.9414 7.26953 15.5 6.57812 15.5H5.95312C4.57422 15.5 3.45312 14.3789 3.45312 13V11.125C3.45312 9.74609 4.57422 8.625 5.95312 8.625ZM14.7031 8.625C16.082 8.625 17.2031 9.74609 17.2031 11.125V13C17.2031 14.3789 16.082 15.5 14.7031 15.5H14.0781C13.3867 15.5 12.8281 14.9414 12.8281 14.25V9.875C12.8281 9.18359 13.3867 8.625 14.0781 8.625H14.7031Z" fill="#4F46E5"/>
</g>
<defs>
<clipPath id="clip0_611_652">
<path d="M0.328125 0.5H20.3281V20.5H0.328125V0.5Z" fill="white"/>
</clipPath>
</defs>
</svg>
