<svg width="17" height="16" viewBox="0 0 17 16" fill="none" xmlns="http://www.w3.org/2000/svg">
<g clip-path="url(#clip0_3_750)">
<path d="M10.75 11C13.7875 11 16.25 8.5375 16.25 5.5C16.25 2.4625 13.7875 0 10.75 0C7.7125 0 5.25 2.4625 5.25 5.5C5.25 6.08437 5.34063 6.65 5.50938 7.17812L0.46875 12.2188C0.328125 12.3594 0.25 12.55 0.25 12.75V15.25C0.25 15.6656 0.584375 16 1 16H3.5C3.91563 16 4.25 15.6656 4.25 15.25V14H5.5C5.91563 14 6.25 13.6656 6.25 13.25V12H7.5C7.7 12 7.89062 11.9219 8.03125 11.7812L9.07187 10.7406C9.6 10.9094 10.1656 11 10.75 11ZM12 3C12.3315 3 12.6495 3.1317 12.8839 3.36612C13.1183 3.60054 13.25 3.91848 13.25 4.25C13.25 4.58152 13.1183 4.89946 12.8839 5.13388C12.6495 5.3683 12.3315 5.5 12 5.5C11.6685 5.5 11.3505 5.3683 11.1161 5.13388C10.8817 4.89946 10.75 4.58152 10.75 4.25C10.75 3.91848 10.8817 3.60054 11.1161 3.36612C11.3505 3.1317 11.6685 3 12 3Z" fill="white"/>
</g>
<defs>
<clipPath id="clip0_3_750">
<path d="M0.25 0H16.25V16H0.25V0Z" fill="white"/>
</clipPath>
</defs>
</svg>
