<svg width="15" height="16" viewBox="0 0 15 16" fill="none" xmlns="http://www.w3.org/2000/svg">
<g clip-path="url(#clip0_3_840)">
<g clip-path="url(#clip1_3_840)">
<path d="M0.512695 7.29377C0.12207 7.6844 0.12207 8.31877 0.512695 8.7094L5.5127 13.7094C5.90332 14.1 6.5377 14.1 6.92832 13.7094C7.31895 13.3188 7.31895 12.6844 6.92832 12.2938L3.63145 9.00002H13.2189C13.7721 9.00002 14.2189 8.55315 14.2189 8.00002C14.2189 7.4469 13.7721 7.00002 13.2189 7.00002H3.63457L6.9252 3.70627C7.31582 3.31565 7.31582 2.68127 6.9252 2.29065C6.53457 1.90002 5.9002 1.90002 5.50957 2.29065L0.50957 7.29065L0.512695 7.29377Z" fill="#008AD5"/>
</g>
</g>
<defs>
<clipPath id="clip0_3_840">
<rect width="14" height="16" fill="white" transform="translate(0.21875)"/>
</clipPath>
<clipPath id="clip1_3_840">
<path d="M0.21875 0H14.2188V16H0.21875V0Z" fill="white"/>
</clipPath>
</defs>
</svg>
