<svg width="48" height="48" viewBox="0 0 48 48" fill="none" xmlns="http://www.w3.org/2000/svg">
<path d="M40 0C44.4183 0 48 3.58172 48 8V40C48 44.4183 44.4183 48 40 48H8C3.58172 48 0 44.4183 0 40V8C5.15405e-07 3.58172 3.58172 0 8 0H40Z" fill="#DBEAFE"/>
<path d="M40 0C44.4183 0 48 3.58172 48 8V40C48 44.4183 44.4183 48 40 48H8C3.58172 48 0 44.4183 0 40V8C5.15405e-07 3.58172 3.58172 0 8 0H40Z" stroke="#E5E7EB"/>
<path d="M34 34H14V14H34V34Z" stroke="#E5E7EB"/>
<path d="M34 34H14V14H34V34Z" stroke="#E5E7EB"/>
<path d="M15.5625 15.875C15.043 15.875 14.625 16.293 14.625 16.8125V18.6875C14.625 19.207 15.043 19.625 15.5625 19.625H17.4375C17.957 19.625 18.375 19.207 18.375 18.6875V16.8125C18.375 16.293 17.957 15.875 17.4375 15.875H15.5625ZM21.5 16.5C20.8086 16.5 20.25 17.0586 20.25 17.75C20.25 18.4414 20.8086 19 21.5 19H32.75C33.4414 19 34 18.4414 34 17.75C34 17.0586 33.4414 16.5 32.75 16.5H21.5ZM21.5 22.75C20.8086 22.75 20.25 23.3086 20.25 24C20.25 24.6914 20.8086 25.25 21.5 25.25H32.75C33.4414 25.25 34 24.6914 34 24C34 23.3086 33.4414 22.75 32.75 22.75H21.5ZM21.5 29C20.8086 29 20.25 29.5586 20.25 30.25C20.25 30.9414 20.8086 31.5 21.5 31.5H32.75C33.4414 31.5 34 30.9414 34 30.25C34 29.5586 33.4414 29 32.75 29H21.5ZM14.625 23.0625V24.9375C14.625 25.457 15.043 25.875 15.5625 25.875H17.4375C17.957 25.875 18.375 25.457 18.375 24.9375V23.0625C18.375 22.543 17.957 22.125 17.4375 22.125H15.5625C15.043 22.125 14.625 22.543 14.625 23.0625ZM15.5625 28.375C15.043 28.375 14.625 28.793 14.625 29.3125V31.1875C14.625 31.707 15.043 32.125 15.5625 32.125H17.4375C17.957 32.125 18.375 31.707 18.375 31.1875V29.3125C18.375 28.793 17.957 28.375 17.4375 28.375H15.5625Z" fill="#008AD5"/>
</svg>
