<svg width="17" height="16" viewBox="0 0 17 16" fill="none" xmlns="http://www.w3.org/2000/svg">
<g clip-path="url(#clip0_3_1924)">
<path d="M2.5 2C2.5 1.44687 2.05313 1 1.5 1C0.946875 1 0.5 1.44687 0.5 2V12.5C0.5 13.8813 1.61875 15 3 15H15.5C16.0531 15 16.5 14.5531 16.5 14C16.5 13.4469 16.0531 13 15.5 13H3C2.725 13 2.5 12.775 2.5 12.5V2ZM15.2063 4.70625C15.5969 4.31563 15.5969 3.68125 15.2063 3.29063C14.8156 2.9 14.1812 2.9 13.7906 3.29063L10.5 6.58437L8.70625 4.79063C8.31563 4.4 7.68125 4.4 7.29063 4.79063L3.79063 8.29062C3.4 8.68125 3.4 9.31563 3.79063 9.70625C4.18125 10.0969 4.81563 10.0969 5.20625 9.70625L8 6.91563L9.79375 8.70938C10.1844 9.1 10.8188 9.1 11.2094 8.70938L15.2094 4.70937L15.2063 4.70625Z" fill="#EA580C"/>
</g>
<defs>
<clipPath id="clip0_3_1924">
<path d="M0.5 0H16.5V16H0.5V0Z" fill="white"/>
</clipPath>
</defs>
</svg>
