<svg width="20" height="18" viewBox="0 0 20 18" fill="none" xmlns="http://www.w3.org/2000/svg">
<path d="M1.0625 0.875C0.542969 0.875 0.125 1.29297 0.125 1.8125V3.6875C0.125 4.20703 0.542969 4.625 1.0625 4.625H2.9375C3.45703 4.625 3.875 4.20703 3.875 3.6875V1.8125C3.875 1.29297 3.45703 0.875 2.9375 0.875H1.0625ZM7 1.5C6.30859 1.5 5.75 2.05859 5.75 2.75C5.75 3.44141 6.30859 4 7 4H18.25C18.9414 4 19.5 3.44141 19.5 2.75C19.5 2.05859 18.9414 1.5 18.25 1.5H7ZM7 7.75C6.30859 7.75 5.75 8.30859 5.75 9C5.75 9.69141 6.30859 10.25 7 10.25H18.25C18.9414 10.25 19.5 9.69141 19.5 9C19.5 8.30859 18.9414 7.75 18.25 7.75H7ZM7 14C6.30859 14 5.75 14.5586 5.75 15.25C5.75 15.9414 6.30859 16.5 7 16.5H18.25C18.9414 16.5 19.5 15.9414 19.5 15.25C19.5 14.5586 18.9414 14 18.25 14H7ZM0.125 8.0625V9.9375C0.125 10.457 0.542969 10.875 1.0625 10.875H2.9375C3.45703 10.875 3.875 10.457 3.875 9.9375V8.0625C3.875 7.54297 3.45703 7.125 2.9375 7.125H1.0625C0.542969 7.125 0.125 7.54297 0.125 8.0625ZM1.0625 13.375C0.542969 13.375 0.125 13.793 0.125 14.3125V16.1875C0.125 16.707 0.542969 17.125 1.0625 17.125H2.9375C3.45703 17.125 3.875 16.707 3.875 16.1875V14.3125C3.875 13.793 3.45703 13.375 2.9375 13.375H1.0625Z" fill="#3B82F6"/>
</svg>
