<svg width="16" height="13" viewBox="0 0 16 13" fill="none" xmlns="http://www.w3.org/2000/svg">
<path d="M1.75 0.625C0.784766 0.625 0 1.40977 0 2.375V3.25H15.75V2.375C15.75 1.40977 14.9652 0.625 14 0.625H1.75ZM15.75 5.875H0V11.125C0 12.0902 0.784766 12.875 1.75 12.875H14C14.9652 12.875 15.75 12.0902 15.75 11.125V5.875ZM3.0625 9.375H4.8125C5.05312 9.375 5.25 9.57187 5.25 9.8125C5.25 10.0531 5.05312 10.25 4.8125 10.25H3.0625C2.82188 10.25 2.625 10.0531 2.625 9.8125C2.625 9.57187 2.82188 9.375 3.0625 9.375ZM6.125 9.8125C6.125 9.57187 6.32188 9.375 6.5625 9.375H10.0625C10.3031 9.375 10.5 9.57187 10.5 9.8125C10.5 10.0531 10.3031 10.25 10.0625 10.25H6.5625C6.32188 10.25 6.125 10.0531 6.125 9.8125Z" fill="#4B5563"/>
</svg>
