<svg width="21" height="21" viewBox="0 0 21 21" fill="none" xmlns="http://www.w3.org/2000/svg">
<g clip-path="url(#clip0_611_648)">
<path d="M10.6563 0.5C10.836 0.5 11.0156 0.539063 11.1797 0.613281L18.5352 3.73438C19.3946 4.09766 20.0352 4.94531 20.0313 5.96875C20.0117 9.84375 18.418 16.9336 11.6875 20.1562C11.0352 20.4688 10.2774 20.4688 9.62502 20.1562C2.89455 16.9336 1.3008 9.84375 1.28127 5.96875C1.27736 4.94531 1.91799 4.09766 2.77736 3.73438L10.1367 0.613281C10.2969 0.539063 10.4766 0.5 10.6563 0.5ZM10.6563 3.10938V17.875C16.0469 15.2656 17.4961 9.48828 17.5313 6.02344L10.6563 3.10938Z" fill="#9333EA"/>
</g>
<defs>
<clipPath id="clip0_611_648">
<path d="M0.65625 0.5H20.6562V20.5H0.65625V0.5Z" fill="white"/>
</clipPath>
</defs>
</svg>
