<svg width="13" height="12" viewBox="0 0 13 12" fill="none" xmlns="http://www.w3.org/2000/svg">
<path d="M6.76574 0.75C7.09855 0.75 7.40558 0.925781 7.57433 1.21406L12.6368 9.83906C12.8079 10.1297 12.8079 10.4883 12.6415 10.7789C12.4751 11.0695 12.1634 11.25 11.8282 11.25H1.70324C1.36808 11.25 1.05636 11.0695 0.889955 10.7789C0.723549 10.4883 0.725893 10.1273 0.894643 9.83906L5.95714 1.21406C6.12589 0.925781 6.43292 0.75 6.76574 0.75ZM6.76574 3.75C6.45402 3.75 6.20324 4.00078 6.20324 4.3125V6.9375C6.20324 7.24922 6.45402 7.5 6.76574 7.5C7.07746 7.5 7.32824 7.24922 7.32824 6.9375V4.3125C7.32824 4.00078 7.07746 3.75 6.76574 3.75ZM7.51574 9C7.51574 8.80109 7.43672 8.61032 7.29607 8.46967C7.15541 8.32902 6.96465 8.25 6.76574 8.25C6.56682 8.25 6.37606 8.32902 6.23541 8.46967C6.09475 8.61032 6.01574 8.80109 6.01574 9C6.01574 9.19891 6.09475 9.38968 6.23541 9.53033C6.37606 9.67098 6.56682 9.75 6.76574 9.75C6.96465 9.75 7.15541 9.67098 7.29607 9.53033C7.43672 9.38968 7.51574 9.19891 7.51574 9Z" fill="#991B1B"/>
</svg>
